HIERARCHY
ROOT Hips
{
	OFFSET 0.000000 0.000000 0.000000
	CHANNELS 6 Xposition Yposition Zposition Xrotation Yrotation Zrotation
	JOINT LeftUpLeg_virtual
	{
		OFFSET 0.000000 0.000000 0.000000
		CHANNELS 3 Xrotation Yrotation Zrotation
		JOINT LeftUpLeg
		{
			OFFSET 11.394100 -6.187798 -0.413800
			CHANNELS 3 Xrotation Yrotation Zrotation
			JOINT LeftLeg
			{
				OFFSET 0.430247 -32.302673 3.732800
				CHANNELS 3 Xrotation Yrotation Zrotation
				JOINT LeftFoot
				{
					OFFSET -0.430247 -48.264931 -6.423300
					CHANNELS 3 Xrotation Yrotation Zrotation
					JOINT LeftToeBase
					{
						OFFSET 4.230900 -16.068199 23.438400
						CHANNELS 3 Xrotation Yrotation Zrotation
						JOINT LeftToe_End
						{
							OFFSET 4.510700 0.695400 19.974600
							CHANNELS 3 Xrotation Yrotation Zrotation
							End Site
							{
								OFFSET 0 0 0
							}
						}
					}
				}
			}
		}
	}
	JOINT RightUpLeg_virtual
	{
		OFFSET 0.000000 0.000000 0.000000
		CHANNELS 3 Xrotation Yrotation Zrotation
		JOINT RightUpLeg
		{
			OFFSET -11.333700 -6.187798 -0.413800
			CHANNELS 3 Xrotation Yrotation Zrotation
			JOINT RightLeg
			{
				OFFSET -0.430392 -32.302628 3.733000
				CHANNELS 3 Xrotation Yrotation Zrotation
				JOINT RightFoot
				{
					OFFSET 0.430392 -48.264973 -6.423500
					CHANNELS 3 Xrotation Yrotation Zrotation
					JOINT RightToeBase
					{
						OFFSET -4.230900 -16.068199 23.438400
						CHANNELS 3 Xrotation Yrotation Zrotation
						JOINT RightToe_End
						{
							OFFSET -4.510700 0.695400 19.974600
							CHANNELS 3 Xrotation Yrotation Zrotation
							End Site
							{
								OFFSET 0 0 0
							}
						}
					}
				}
			}
		}
	}
	JOINT Spine_virtual
	{
		OFFSET 0.000000 0.000000 0.000000
		CHANNELS 3 Xrotation Yrotation Zrotation
		JOINT Spine
		{
			OFFSET -0.002400 12.777504 0.315300
			CHANNELS 3 Xrotation Yrotation Zrotation
			JOINT Spine1
			{
				OFFSET -0.002067 5.816869 0.032633
				CHANNELS 3 Xrotation Yrotation Zrotation
				JOINT Spine1_split
				{
					OFFSET -0.002067 5.816869 0.032633
					CHANNELS 3 Xrotation Yrotation Zrotation
					JOINT Spine2
					{
						OFFSET -0.002067 5.816869 0.032633
						CHANNELS 3 Xrotation Yrotation Zrotation
						JOINT Neck_virtual
						{
							OFFSET 0.000000 0.000000 0.000000
							CHANNELS 3 Xrotation Yrotation Zrotation
							JOINT Neck
							{
								OFFSET -0.003700 21.199493 -0.826900
								CHANNELS 3 Xrotation Yrotation Zrotation
								JOINT Head
								{
									OFFSET 0.000000 20.442200 4.834800
									CHANNELS 3 Xrotation Yrotation Zrotation
									JOINT HeadTop_End
									{
										OFFSET 0.000000 34.668396 4.968400
										CHANNELS 3 Xrotation Yrotation Zrotation
										End Site
										{
											OFFSET 0 0 0
										}
									}
								}
							}
						}
						JOINT LeftShoulder_virtual
						{
							OFFSET 0.000000 0.000000 0.000000
							CHANNELS 3 Xrotation Yrotation Zrotation
							JOINT LeftShoulder
							{
								OFFSET 3.288150 8.794197 -1.372250
								CHANNELS 3 Xrotation Yrotation Zrotation
								JOINT LeftShoulder_split
								{
									OFFSET 3.288150 8.794197 -1.372250
									CHANNELS 3 Xrotation Yrotation Zrotation
									JOINT LeftArm
									{
										OFFSET 11.953299 -2.279007 -0.146200
										CHANNELS 3 Xrotation Yrotation Zrotation
										JOINT LeftForeArm
										{
											OFFSET 18.448900 0.000000 0.000000
											CHANNELS 3 Xrotation Yrotation Zrotation
											JOINT LeftHand
											{
												OFFSET 29.527798 0.000000 0.000000
												CHANNELS 3 Xrotation Yrotation Zrotation
												End Site
												{
													OFFSET 0 0 0
												}
											}
										}
									}
								}
							}
						}
						JOINT RightShoulder_virtual
						{
							OFFSET 0.000000 0.000000 0.000000
							CHANNELS 3 Xrotation Yrotation Zrotation
							JOINT RightShoulder
							{
								OFFSET -3.249400 8.794197 -1.372250
								CHANNELS 3 Xrotation Yrotation Zrotation
								JOINT RightShoulder_split
								{
									OFFSET -3.249400 8.794197 -1.372250
									CHANNELS 3 Xrotation Yrotation Zrotation
									JOINT RightArm
									{
										OFFSET -11.953299 -2.279007 -0.146200
										CHANNELS 3 Xrotation Yrotation Zrotation
										JOINT RightForeArm
										{
											OFFSET -18.448900 0.000000 0.000000
											CHANNELS 3 Xrotation Yrotation Zrotation
											JOINT RightHand
											{
												OFFSET -29.527802 0.000000 0.000000
												CHANNELS 3 Xrotation Yrotation Zrotation
												End Site
												{
													OFFSET 0 0 0
												}
											}
										}
									}
								}
							}
						}
					}
				}
			}
		}
	}
}
MOTION
Frames: 10
Frame Time: 0.03333333
-2.256386 99.630463 -11.572395 0.000000 0.000000 0.000000 5.801437 -11.674786 3.383129 -25.812096 23.569933 12.282233 26.681328 13.221867 -0.585746 -1.968714 3.778322 -4.121616 2.993866 -3.693234 0.569842 0.000000 0.000000 0.000000 6.778447 -14.565583 4.230250 -24.147229 -11.180735 -4.781517 24.774781 8.863233 -3.328161 -10.116898 -13.597887 7.929137 5.453915 4.119225 -25.303363 0.000000 0.000000 0.000000 7.510926 -8.957092 2.806385 0.705428 -1.406649 0.552990 5.191058 -3.770740 2.980973 -0.040230 -0.384810 0.042069 0.000000 0.000000 0.000000 9.249017 -0.884644 2.885108 -10.932258 0.978321 -5.464785 -26.464065 -0.781845 24.727703 0.000000 0.000000 0.000000 6.613392 -2.156374 2.172163 0.298267 -17.007181 5.716908 0.592456 0.594065 0.336252 -54.754662 15.781524 -39.358740 56.057712 -72.301049 55.128612 0.000000 0.000000 0.000000 8.823728 -1.678591 3.206137 2.167765 -0.294403 3.148636 -9.745700 -8.272696 0.034215 -15.434826 8.431124 61.217100 10.060736 8.825091 2.449971 0.000000 0.000000 0.000000 
-1.789025 99.365639 -10.447609 0.000000 0.000000 0.000000 5.987052 -11.038607 3.234710 -26.762513 24.391118 12.862175 26.440789 12.814342 -0.482311 -1.876437 2.661153 -4.538615 1.647634 -3.584498 1.181786 0.000000 0.000000 0.000000 7.293291 -13.523946 4.124954 -22.804897 -10.338758 -4.658331 23.820597 8.571376 -3.371629 -10.108834 -13.586065 9.132532 2.360904 4.742846 -25.252782 0.000000 0.000000 0.000000 7.672274 -7.196557 2.527488 0.539516 -1.093852 0.849616 5.748804 -3.418607 3.057513 -0.101905 -0.220828 0.031327 0.000000 0.000000 0.000000 9.342392 -0.567682 2.817363 -10.079746 0.792569 -5.408339 -27.156513 -1.814598 25.131855 0.000000 0.000000 0.000000 6.872500 -1.892311 2.015460 -0.166157 -15.899022 5.386902 -1.352138 2.267116 -0.544902 -54.049797 17.774746 -37.943135 57.602721 -72.810568 55.999652 0.000000 0.000000 0.000000 8.988944 -1.370044 3.158052 2.153651 0.091657 3.453010 -10.146269 -7.593778 -0.290419 -14.157801 8.495921 60.330487 10.109436 8.956210 2.662090 0.000000 0.000000 0.000000 
-1.274121 99.122452 -9.559582 0.000000 0.000000 0.000000 6.207156 -7.955763 2.729854 -29.280444 23.845613 13.621067 27.015276 11.892832 -0.493977 -0.749173 0.555869 -4.689678 0.753815 -3.379051 1.923113 0.000000 0.000000 0.000000 7.737077 -9.252467 3.344251 -19.270783 -10.291154 -4.567073 21.991353 7.466595 -3.096313 -12.438332 -13.949115 8.916156 2.044333 5.135475 -23.551833 0.000000 0.000000 0.000000 7.718403 -3.690159 1.973478 0.192320 -0.578415 1.294048 6.285933 -2.550125 3.012639 -0.160154 -0.122094 0.033285 0.000000 0.000000 0.000000 9.450807 0.219506 2.731281 -9.622017 0.265249 -5.198906 -27.299149 -6.032526 24.245064 0.000000 0.000000 0.000000 6.920676 -1.182794 1.792658 -0.774897 -13.623930 4.935069 -2.439226 2.855511 -0.670836 -56.177821 21.275244 -35.684620 64.067994 -76.038351 61.868270 0.000000 0.000000 0.000000 8.902253 -0.623404 3.071012 2.238869 1.345411 4.065988 -10.501702 -6.764963 -0.506801 -12.564512 7.084243 59.492621 10.523034 9.168293 2.484414 0.000000 0.000000 0.000000 
-0.493899 98.970108 -9.174824 0.000000 0.000000 0.000000 6.532039 -2.521473 1.927750 -32.335738 22.225021 14.045365 27.726977 10.881542 -0.543687 0.642693 -2.136627 -4.269136 0.880433 -3.091279 2.553565 0.000000 0.000000 0.000000 8.023626 -2.780058 2.156845 -14.644935 -11.266219 -4.697223 19.889314 5.831548 -2.520815 -15.454068 -14.447694 8.432383 3.114419 5.668234 -20.773580 0.000000 0.000000 0.000000 7.734715 1.176617 1.261253 -0.422325 0.099974 1.827380 6.689958 -1.218724 2.741345 -0.167856 -0.194314 -0.004640 0.000000 0.000000 0.000000 9.506762 1.466362 2.519109 -9.648644 -0.647802 -4.634246 -27.045157 -13.509020 22.242127 0.000000 0.000000 0.000000 6.843376 -0.022705 1.432410 -1.389000 -10.573873 4.421205 -2.096627 2.310973 0.233438 -60.831987 24.517828 -32.849132 76.942552 -80.410916 74.236438 0.000000 0.000000 0.000000 8.649123 0.537513 2.825407 2.365028 3.241677 4.937455 -10.938879 -6.243699 -0.284184 -11.030644 4.746686 58.717210 11.248075 9.034702 1.924529 0.000000 0.000000 0.000000 
0.499711 99.104973 -8.792210 0.000000 0.000000 0.000000 6.975300 4.576660 0.931925 -34.976302 19.795613 13.574564 27.635302 10.104251 -0.531657 1.679015 -5.265092 -3.409406 1.561500 -2.766732 2.991314 0.000000 0.000000 0.000000 8.172261 4.695767 0.882632 -9.824970 -13.311894 -5.020248 17.969307 4.329098 -1.708059 -17.622312 -14.774389 9.126970 2.738129 6.797060 -17.435560 0.000000 0.000000 0.000000 7.747652 6.899529 0.438736 -1.262176 0.912968 2.402242 6.900442 0.519096 2.173657 -0.080677 -0.296207 0.026500 0.000000 0.000000 0.000000 9.507773 3.100205 2.080564 -10.233247 -2.055970 -3.371701 -26.850756 -23.649458 19.207346 0.000000 0.000000 0.000000 6.703883 1.551828 0.860133 -1.932619 -6.990925 3.632178 -1.018395 1.437441 1.801291 -66.991069 26.349676 -29.981395 99.434857 -84.349968 96.315796 0.000000 0.000000 0.000000 8.321068 2.083996 2.341677 2.448253 5.466550 5.974708 -11.433437 -5.707380 0.727130 -9.695068 2.190489 57.959674 12.172554 8.498959 0.994702 0.000000 0.000000 0.000000 
1.667805 99.629028 -8.346302 0.000000 0.000000 0.000000 7.601312 12.364843 -0.083003 -36.976274 16.660838 12.342593 26.599523 9.110520 -0.384903 2.873546 -8.904632 -2.989642 1.829223 -2.470677 3.428698 0.000000 0.000000 0.000000 8.233563 12.182316 -0.248195 -5.405232 -15.988214 -5.307953 16.223972 3.347855 -0.871364 -18.613302 -14.777717 10.914987 0.061349 8.328702 -13.806965 0.000000 0.000000 0.000000 7.759446 12.660896 -0.438633 -2.193304 1.783166 2.994279 6.936930 2.609855 1.369000 0.085778 -0.285564 0.092554 0.000000 0.000000 0.000000 9.472571 5.047211 1.395405 -11.121489 -4.047632 -1.132142 -26.809269 -35.619020 15.341366 0.000000 0.000000 0.000000 6.545807 3.481732 0.109592 -2.348621 -3.170298 2.568723 0.604877 0.442207 3.340897 -72.998535 26.040168 -27.895997 145.054735 -86.770443 141.696523 0.000000 0.000000 0.000000 7.956794 3.945135 1.614892 2.420663 7.641460 7.150465 -12.008171 -4.920197 1.825986 -8.589004 0.140740 57.177839 13.168983 7.715138 -0.216315 0.000000 0.000000 0.000000 
2.983639 100.359650 -7.819466 0.000000 0.000000 0.000000 8.181546 19.943901 -1.130992 -38.474189 13.040954 10.600400 24.987632 7.803907 -0.221429 4.713937 -12.927796 -3.238983 1.192672 -2.234307 3.851892 0.000000 0.000000 0.000000 8.105082 19.070054 -1.160131 -1.584132 -18.792605 -5.361009 15.117336 2.574145 -0.063994 -18.861491 -14.687874 12.344147 -2.919911 9.548708 -9.875619 0.000000 0.000000 0.000000 7.714654 18.529038 -1.385256 -3.119848 2.550143 3.547515 6.807542 4.936973 0.475853 0.275055 -0.220920 0.134025 0.000000 0.000000 0.000000 9.312552 7.188425 0.530596 -12.030653 -6.515676 2.119905 -27.031035 -48.380812 10.785203 0.000000 0.000000 0.000000 6.422976 5.654100 -0.680007 -2.617036 0.823423 1.446115 2.575496 -1.011526 4.386524 -77.678287 23.925328 -27.126759 -154.625921 -86.818507 -157.986087 0.000000 0.000000 0.000000 7.677950 6.001594 0.705633 2.343031 9.454137 8.313419 -12.910909 -3.780433 2.730345 -7.443359 -0.987618 56.372768 14.105184 7.118574 -1.607092 0.000000 0.000000 0.000000 
4.350438 101.076370 -7.161716 0.000000 0.000000 0.000000 8.363753 26.500567 -2.082352 -39.502269 8.910433 8.525104 23.526182 6.424982 -0.055916 7.195603 -16.603012 -3.921075 -0.091593 -2.035299 4.074557 0.000000 0.000000 0.000000 7.667679 25.101517 -1.890433 1.206453 -21.268101 -5.197717 15.015331 1.776756 0.752288 -17.958400 -14.679180 12.755965 -5.263546 10.057911 -5.644445 0.000000 0.000000 0.000000 7.468153 24.554463 -2.404647 -3.985353 3.104241 3.996991 6.553315 7.320709 -0.321099 0.367575 -0.157378 0.175144 0.000000 0.000000 0.000000 9.064542 9.372662 -0.349440 -12.586588 -9.188952 6.163158 -27.791627 -60.670576 5.480637 0.000000 0.000000 0.000000 6.320460 7.937825 -1.328734 -2.780376 5.072197 0.549352 4.388614 -2.646490 4.858590 -80.651243 20.984076 -27.586714 -113.869465 -85.683712 -116.935967 0.000000 0.000000 0.000000 7.438818 8.084223 -0.220823 2.293853 10.536011 9.420929 -14.021459 -2.225175 3.228783 -6.018086 -0.943796 55.408984 14.885916 7.445132 -3.062959 0.000000 0.000000 0.000000 
5.748946 101.500122 -6.364147 0.000000 0.000000 0.000000 7.795501 31.594085 -2.656704 -39.977579 4.412570 6.219563 22.973691 5.146133 0.298374 9.269551 -19.192159 -4.912521 -1.108032 -1.759716 3.828442 0.000000 0.000000 0.000000 6.920723 30.499568 -2.547649 2.837670 -22.981913 -4.989715 15.627276 1.281189 1.515002 -14.878064 -14.652188 13.172253 -9.296770 9.710646 -1.257469 0.000000 0.000000 0.000000 6.799902 30.410977 -3.281739 -4.747953 3.326974 4.328905 6.197097 9.522590 -0.855831 0.445649 -0.105866 0.155038 0.000000 0.000000 0.000000 8.646544 11.463749 -1.060732 -12.535063 -11.724249 10.623563 -29.729949 -71.686264 -0.980797 0.000000 0.000000 0.000000 6.173069 10.133071 -1.626121 -2.949157 9.399366 0.315935 6.335867 -4.380230 4.785184 -82.578100 18.035357 -28.370497 -86.057918 -83.902365 -88.411492 0.000000 0.000000 0.000000 7.220364 9.986750 -1.043702 2.438120 10.851087 10.397600 -15.076703 -0.482382 3.307122 -4.174447 0.164493 53.859119 15.365827 8.796360 -4.472887 0.000000 0.000000 0.000000 
7.125367 101.474907 -5.556648 0.000000 0.000000 0.000000 6.308951 35.428912 -2.803053 -39.538736 0.135298 3.762208 23.334202 4.512084 0.957727 9.040443 -20.394834 -5.810859 -0.635002 -1.319894 2.772546 0.000000 0.000000 0.000000 6.096403 35.147064 -3.103256 3.629520 -23.814578 -4.780579 16.508709 1.500220 2.076872 -9.453287 -14.332872 14.405979 -15.957530 8.276105 3.048870 0.000000 0.000000 0.000000 5.606353 36.160709 -3.830654 -5.315723 3.142229 4.512402 5.720705 11.402949 -1.096571 0.458414 -0.023147 0.142038 0.000000 0.000000 0.000000 8.037404 13.285559 -1.476437 -11.814918 -13.831174 15.047731 -36.993500 -80.795209 -12.479496 0.000000 0.000000 0.000000 5.915409 12.066698 -1.446057 -3.263718 13.656983 0.976156 8.059079 -6.224174 4.329008 -84.653098 15.827428 -28.751958 -64.256726 -81.111133 -65.722601 0.000000 0.000000 0.000000 6.948807 11.549257 -1.638774 2.823045 10.490062 11.141112 -15.768248 1.106355 3.591828 -2.162116 2.300055 50.903317 15.454952 11.254154 -5.768883 0.000000 0.000000 0.000000 
